<svg width="40" height="40" viewBox="0 0 40 40" fill="none" xmlns="http://www.w3.org/2000/svg">
<rect width="40" height="40" rx="20" fill="url(#paint0_linear_323_1146)"/>
<rect width="40" height="40" rx="20" fill="url(#paint1_linear_323_1146)" fill-opacity="0.56"/>
<g clip-path="url(#clip0_323_1146)">
<path d="M20.0059 7.5C23.0663 7.5 25.9612 8.59263 28.2403 10.5911C28.5027 10.8212 28.5049 11.2236 28.2581 11.4704L23.7978 15.9307C23.5605 16.168 23.1804 16.1718 22.9085 15.9752C22.0687 15.3682 21.063 15.041 20.0078 15.041C17.2695 15.0391 15.043 17.2656 15.043 20H7.5C7.5 13.1074 13.1113 7.5 20.0059 7.5Z" fill="white"/>
<path d="M15.043 20C15.043 22.668 17.1621 24.8516 19.8066 24.957H23.1523C23.4975 24.957 23.7773 25.2369 23.7773 25.582V31.8747C23.7773 32.22 23.4973 32.4999 23.152 32.4997L19.8066 32.498C13.002 32.3926 7.5 26.8262 7.5 20H15.043Z" fill="white"/>
<path opacity="0.56" d="M27.125 20.9922H24.8008C24.4556 20.9922 24.1758 21.272 24.1758 21.6172V23.9395C24.1758 24.2846 24.4556 24.5645 24.8008 24.5645H27.125C27.4702 24.5645 27.75 24.2846 27.75 23.9395V21.6172C27.75 21.272 27.4702 20.9922 27.125 20.9922Z" fill="white"/>
<path opacity="0.4" d="M31.0938 20.9922H28.7695C28.4244 20.9922 28.1445 21.272 28.1445 21.6172V23.9395C28.1445 24.2846 28.4244 24.5645 28.7695 24.5645H31.0938C31.4389 24.5645 31.7188 24.2846 31.7188 23.9395V21.6172C31.7188 21.272 31.4389 20.9922 31.0938 20.9922Z" fill="white"/>
<path opacity="0.72" d="M27.125 24.9609H24.8008C24.4556 24.9609 24.1758 25.2408 24.1758 25.5859V27.9082C24.1758 28.2534 24.4556 28.5332 24.8008 28.5332H27.125C27.4702 28.5332 27.75 28.2534 27.75 27.9082V25.5859C27.75 25.2408 27.4702 24.9609 27.125 24.9609Z" fill="white"/>
<path opacity="0.72" d="M23.1543 20.9922H20.8301C20.4849 20.9922 20.2051 21.272 20.2051 21.6172V23.9395C20.2051 24.2846 20.4849 24.5645 20.8301 24.5645H23.1543C23.4995 24.5645 23.7793 24.2846 23.7793 23.9395V21.6172C23.7793 21.272 23.4995 20.9922 23.1543 20.9922Z" fill="white"/>
<path opacity="0.56" d="M31.0938 24.9609H28.7695C28.4244 24.9609 28.1445 25.2408 28.1445 25.5859V27.9082C28.1445 28.2534 28.4244 28.5332 28.7695 28.5332H31.0938C31.4389 28.5332 31.7188 28.2534 31.7188 27.9082V25.5859C31.7188 25.2408 31.4389 24.9609 31.0938 24.9609Z" fill="white"/>
<path opacity="0.88" d="M27.125 28.9277H24.8008C24.4556 28.9277 24.1758 29.2076 24.1758 29.5527V31.875C24.1758 32.2202 24.4556 32.5 24.8008 32.5H27.125C27.4702 32.5 27.75 32.2202 27.75 31.875V29.5527C27.75 29.2076 27.4702 28.9277 27.125 28.9277Z" fill="white"/>
<path opacity="0.72" d="M31.0938 28.9277H28.7695C28.4244 28.9277 28.1445 29.2076 28.1445 29.5527V31.875C28.1445 32.2202 28.4244 32.5 28.7695 32.5H31.0938C31.4389 32.5 31.7188 32.2202 31.7188 31.875V29.5527C31.7188 29.2076 31.4389 28.9277 31.0938 28.9277Z" fill="white"/>
</g>
<defs>
<linearGradient id="paint0_linear_323_1146" x1="20" y1="0" x2="20" y2="40" gradientUnits="userSpaceOnUse">
<stop stop-color="#3558EA"/>
<stop offset="1" stop-color="#0000FF"/>
</linearGradient>
<linearGradient id="paint1_linear_323_1146" x1="25.3215" y1="5.81048" x2="7.70323" y2="58.3054" gradientUnits="userSpaceOnUse">
<stop offset="0.215628" stop-color="#1E1983" stop-opacity="0"/>
<stop offset="0.447191" stop-color="#1E1983" stop-opacity="0.19"/>
<stop offset="0.619792" stop-color="#1E1983"/>
</linearGradient>
<clipPath id="clip0_323_1146">
<rect width="25" height="25" fill="white" transform="translate(7.5 7.5)"/>
</clipPath>
</defs>
</svg>
