<svg width="40" height="38" viewBox="0 0 40 38" fill="none" xmlns="http://www.w3.org/2000/svg">
<path fill-rule="evenodd" clip-rule="evenodd" d="M25.1763 0L6.7718 6.99443V11.1503C3.37662 11.3915 0.315399 13.8404 0 14.1002L1.79963 14.564C7.23562 15.974 6.79035 25.269 6.73469 26.2894L21.9666 37.1057L39.8516 30.9276L40 9.09091C40 9.09091 30.8905 3.5807 25.1763 0ZM8.7384 25.3432C8.84972 23.0798 8.7384 16.3265 4.32282 13.5622C5.04638 13.321 5.86271 13.1725 6.75325 13.1169C9.44341 12.8942 14.1929 13.4137 21.1132 16.9573L21.1503 34.1558L8.7384 25.3432ZM33.7106 27.7922L31.41 25.5844L28.5343 29.462V19.5176L33.7106 17.4397V27.7922ZM22.1707 15.3247L9.92579 7.86642L24.9722 2.13358L36.9017 9.44341L22.1707 15.3247Z" fill="#686EF8"/>
<path d="M16.5955 24.7584C16.6559 24.7677 16.7115 24.7724 16.7718 24.7677C17.1521 24.7631 17.4489 24.6147 17.667 24.3178C17.8942 24.021 18.0102 23.6081 18.0148 23.0655C18.0195 22.5042 17.9082 21.9431 17.6901 21.3679C17.4815 20.7928 17.1892 20.2501 16.8089 19.7491C16.4332 19.2343 16.0111 18.8262 15.5473 18.5154L12.217 16.289L12.1428 25.329L13.6967 26.3679L13.7245 23.1212L14.9119 23.9189L16.4054 28.1768L18.2745 29.4337L16.5955 24.7584ZM16.2894 22.6481C16.2106 22.7825 16.0946 22.8614 15.9416 22.8753C15.7977 22.88 15.6262 22.8104 15.436 22.6805L13.7384 21.5488L13.7569 19.007L15.2551 20.0089C15.4916 20.1666 15.6957 20.3568 15.8766 20.5887C16.0529 20.8113 16.1873 21.0478 16.2801 21.2983C16.3729 21.558 16.4147 21.8132 16.41 22.0683C16.41 22.3094 16.3729 22.4997 16.2894 22.6481Z" fill="#686EF8"/>
</svg>
