<svg width="61" height="61" viewBox="0 0 61 61" fill="none" xmlns="http://www.w3.org/2000/svg">
<rect x="0.833374" y="0.166626" width="60" height="60" rx="30" fill="#0063F7"/>
<path opacity="0.88" d="M50.7691 28.4851C50.7494 28.2855 50.657 28.1002 50.5093 27.9645C50.3616 27.8287 50.1691 27.7521 49.9684 27.7491H30.0161C29.4743 27.7623 28.9453 27.9169 28.4818 28.1976C28.0183 28.4783 27.6363 28.8753 27.3739 29.3491C27.1309 29.7728 27.0031 30.2527 27.0031 30.7411C27.0031 31.2295 27.1309 31.7093 27.3739 32.1331C27.4433 32.2663 27.5462 32.3792 27.6726 32.4606C27.7989 32.542 27.9443 32.589 28.0944 32.5971H50.0165C50.2171 32.5941 50.4097 32.5174 50.5574 32.3817C50.7051 32.2459 50.7975 32.0606 50.8172 31.8611C50.8172 31.2371 50.8172 30.7091 50.8172 30.2611C50.8172 29.8131 50.8171 29.0931 50.7691 28.4851Z" fill="white"/>
<path opacity="0.72" d="M33.1058 32.5333H28.0458C27.9022 32.5231 27.7632 32.4785 27.6405 32.4033C27.5179 32.3281 27.4152 32.2245 27.3411 32.1013V32.1013L36.6448 48.5653C36.716 48.6886 36.8189 48.7906 36.9427 48.861C37.0666 48.9313 37.2069 48.9673 37.3493 48.9653C37.4394 48.9805 37.5315 48.9805 37.6216 48.9653C38.6797 48.5847 39.703 48.1136 40.6802 47.5573C40.7718 47.5059 40.852 47.4367 40.9163 47.3537C40.9806 47.2707 41.0276 47.1757 41.0545 47.0742C41.0814 46.9728 41.0877 46.8669 41.0729 46.763C41.058 46.6591 41.0225 46.5592 40.9683 46.4693L33.1058 32.5333Z" fill="white"/>
<path d="M37.294 49.1092C37.3019 49.1093 37.3098 49.1093 37.3177 49.1092C37.4024 49.1245 37.4893 49.1245 37.574 49.1092L38.0863 48.9012L38.5508 48.7092C39.2591 48.4153 39.949 48.0787 40.6165 47.7012C43.7386 45.944 46.3327 43.3834 48.1293 40.2855C49.9259 37.1876 50.8595 33.6655 50.8329 30.0852C50.8329 29.4932 50.8008 29.0292 50.7528 28.4852C50.7369 28.2871 50.6478 28.1019 50.5028 27.9658C50.3577 27.8298 50.1671 27.7526 49.9681 27.7492H46.7655C46.6532 27.7505 46.5423 27.7754 46.4402 27.8222C46.3382 27.8691 46.2472 27.9369 46.173 28.0212C46.0984 28.1023 46.0424 28.1988 46.0092 28.3039C45.976 28.4089 45.9664 28.52 45.9809 28.6292V30.2292C45.9768 32.7823 45.3293 35.2933 44.0979 37.5304C42.8665 39.7675 41.0909 41.6586 38.9351 43.0292C38.8498 43.084 38.7669 43.1433 38.6837 43.2029C38.6363 43.2369 38.5887 43.271 38.5406 43.3043C38.4614 43.3201 38.3845 43.3464 38.3118 43.3826C36.0284 44.6808 33.4449 45.3593 30.8177 45.3506C26.7857 45.3422 22.9213 43.738 20.0703 40.8893C17.2192 38.0406 15.6137 34.1793 15.6053 30.1506C15.6137 26.1219 17.2192 22.2607 20.0703 19.4119C22.9213 16.5632 26.7857 14.9591 30.8177 14.9506C33.4436 14.9515 36.0248 15.6293 38.3118 16.9186C38.4313 16.9944 38.5706 17.0334 38.7121 17.0306H38.8882C38.998 17.0064 39.1017 16.9598 39.1926 16.8937C39.2835 16.8277 39.3599 16.7435 39.4168 16.6466L41.0181 13.8626C41.124 13.6775 41.1531 13.4583 41.0992 13.2519C41.0454 13.0456 40.9127 12.8685 40.7298 12.7586C37.7156 11.0567 34.3119 10.1638 30.8498 10.1666C25.5437 10.1751 20.4574 12.2849 16.7054 16.0338C12.9534 19.7827 10.8418 24.8649 10.8334 30.1666C10.8418 35.4684 12.9534 40.5505 16.7054 44.2994C20.4574 48.0483 25.5437 50.1582 30.8498 50.1666C33.0498 50.1685 35.2262 49.8085 37.294 49.1092Z" fill="white"/>
</svg>
