<svg width="41" height="41" viewBox="0 0 41 41" fill="none" xmlns="http://www.w3.org/2000/svg">
<path d="M20.1817 13.181C22.2507 13.4835 24.3287 13.4608 26.4057 13.3223C29.5889 13.1102 32.5133 12.2158 34.9605 10.1126C37.7198 7.74706 39.3164 4.61378 40.7876 1.40779C41.0621 0.808809 40.8223 0.64974 40.2265 0.693928C38.629 0.811752 37.0302 0.915847 35.43 1.00618C29.7519 1.32829 24.0851 1.02091 18.42 0.722395C16.1278 0.50402 13.8152 0.632496 11.5623 1.10338C9.15614 1.59441 6.91296 2.43095 4.94932 3.95089C0.0870722 7.70979 0.373561 14.317 1.85472 18.6857C1.86864 18.7269 2.00493 18.7288 2.08053 18.7475C4.00435 15.1665 7.28302 13.6886 11.1127 13.0858C14.1397 12.6065 17.1596 13.0553 20.1817 13.181Z" fill="#0063F7"/>
<path opacity="0.72" d="M26.1943 13.3365C24.1877 13.4623 22.1805 13.4736 20.1815 13.1814C19.4013 13.1489 18.621 13.0949 17.8407 13.0409C16.9977 12.9825 16.1545 12.9243 15.3112 12.8931C15.3907 13.244 15.4595 13.6015 15.5191 13.9646C15.8424 15.9339 15.7012 17.8988 15.56 19.8632C15.5108 20.5497 15.4615 21.2359 15.4321 21.9224C15.1554 23.7371 15.1754 25.561 15.3028 27.3831C15.4942 30.1729 16.3114 32.7415 18.2283 34.8931C20.3853 37.3133 23.2382 38.7184 26.1638 40.0051C26.7101 40.2457 26.8557 40.0359 26.8154 39.5134C26.7069 38.1107 26.6113 36.7077 26.5283 35.3045C26.2385 30.3899 26.5077 25.4844 26.7768 20.5762L26.7878 20.3763C26.9866 18.365 26.8691 16.3359 26.4393 14.3593C26.3666 14.0143 26.2854 13.6733 26.1943 13.3365Z" fill="#0063F7"/>
</svg>
